<svg width="47" height="61" viewBox="0 0 47 61" fill="none" xmlns="http://www.w3.org/2000/svg">
<path d="M45.7236 15L45.7598 15.5127C45.7974 16.2226 45.7825 16.9128 45.7236 17.582V17.8379L45.6953 17.8701C44.9807 24.454 39.8414 28.9301 35.3994 29.7959L35.3125 29.8955C39.6948 30.7967 44.7056 35.0537 45.5967 41.4307L45.626 41.4619L45.6338 41.7178C45.7132 42.3848 45.7492 43.0745 45.7334 43.7852L45.7129 44.2988L46.1738 59.291L35.1787 59.6289L34.9082 40.4131L0.462891 60.415L0.0566406 47.2021L31.6729 29.7422L0 13.5V0.28125L35.043 19.2158L34.7236 0H45.7236V15ZM31.8867 29.9561C31.931 29.9431 31.9766 29.9328 32.0215 29.9209L31.7588 29.7861L31.8867 29.9561ZM35.0732 29.8506C35.1224 29.8594 35.1714 29.8693 35.2207 29.8789V29.8291C35.1716 29.8376 35.1222 29.843 35.0732 29.8506ZM32.2754 29.8584C32.3638 29.8393 32.4527 29.8199 32.543 29.8047C32.4766 29.79 32.41 29.7777 32.3447 29.7607L32.2754 29.8584Z" fill="#8029FE"/>
</svg>
